<svg xmlns="http://www.w3.org/2000/svg" viewBox="0 0 512 512">
  <defs>
    <linearGradient id="bg" x1="0" y1="0" x2="1" y2="1">
      <stop offset="0%" stop-color="#06b6d4"/>
      <stop offset="100%" stop-color="#3b82f6"/>
    </linearGradient>
  </defs>
  <rect width="512" height="512" rx="96" fill="url(#bg)"/>
  <g transform="translate(64,64) scale(6)">
    <path d="M44 32c0-7-7-12-14-12-9 0-16 5-16 12s7 12 16 12c2 0 4-.4 6-1l4 5c.6.7 1.7.5 2-.5l1-4c1-2 1-7.5 1-11.5z" fill="#fff" opacity="0.95"/>
    <circle cx="38" cy="29" r="2" fill="#1e293b"/>
    <ellipse cx="22" cy="34" rx="3" ry="2" fill="#f43f5e" opacity="0.85"/>
    <ellipse cx="30" cy="29" rx="2.5" ry="1.5" fill="#f43f5e" opacity="0.7"/>
  </g>
  <text x="256" y="448" text-anchor="middle" fill="#fff" font-family="system-ui,sans-serif" font-weight="700" font-size="48" opacity="0.95">DK Koi</text>
</svg>
